<?xml version='1.0' encoding='UTF-8'?>
<svg xmlns="http://www.w3.org/2000/svg" width="32" height="32" viewBox="0 0 669 669">
<rect width="100%" height="100%" fill="#224160"/>
<path d="M 415 291 L 414 292 L 411 292 L 410 293 L 405 294 L 395 299 L 393 301 L 389 303 L 379 312 L 379 313 L 375 317 L 372 323 L 370 325 L 369 327 L 369 329 L 367 332 L 366 337 L 365 338 L 365 341 L 364 342 L 364 346 L 363 347 L 363 374 L 364 375 L 364 379 L 365 380 L 365 383 L 366 384 L 367 389 L 373 401 L 375 403 L 375 404 L 384 414 L 385 414 L 389 418 L 392 419 L 394 421 L 404 426 L 406 426 L 410 428 L 413 428 L 414 429 L 417 429 L 418 430 L 424 430 L 425 431 L 435 431 L 436 430 L 443 430 L 444 429 L 448 429 L 449 428 L 452 428 L 453 427 L 455 427 L 458 425 L 460 425 L 468 421 L 470 419 L 474 417 L 477 414 L 478 414 L 485 407 L 485 406 L 488 403 L 488 402 L 492 397 L 495 391 L 495 389 L 497 386 L 497 384 L 498 383 L 498 380 L 499 379 L 499 375 L 500 374 L 500 367 L 501 366 L 501 353 L 500 352 L 500 344 L 499 343 L 499 339 L 498 338 L 498 336 L 497 335 L 496 330 L 491 320 L 489 318 L 489 317 L 479 306 L 478 306 L 474 302 L 471 301 L 469 299 L 461 295 L 459 295 L 456 293 L 454 293 L 453 292 L 449 292 L 448 291 L 444 291 L 443 290 L 421 290 L 420 291 Z" fill="#f3f6ee" fill-rule="evenodd"/>
<path d="M 424 317 L 438 317 L 439 318 L 443 318 L 444 319 L 445 319 L 446 320 L 448 320 L 450 322 L 451 322 L 453 324 L 454 324 L 459 329 L 459 330 L 461 332 L 461 333 L 463 335 L 463 336 L 464 337 L 464 338 L 465 339 L 465 341 L 466 342 L 466 344 L 467 345 L 467 349 L 468 350 L 468 370 L 467 371 L 467 374 L 466 375 L 466 378 L 465 379 L 465 380 L 464 381 L 464 382 L 463 383 L 463 384 L 462 385 L 462 386 L 461 387 L 461 388 L 452 397 L 451 397 L 449 399 L 448 399 L 447 400 L 445 400 L 444 401 L 442 401 L 441 402 L 435 402 L 434 403 L 429 403 L 428 402 L 423 402 L 422 401 L 419 401 L 418 400 L 417 400 L 416 399 L 415 399 L 414 398 L 413 398 L 411 396 L 410 396 L 403 389 L 403 388 L 401 386 L 401 385 L 400 384 L 400 383 L 399 382 L 399 381 L 398 380 L 398 378 L 397 377 L 397 375 L 396 374 L 396 371 L 395 370 L 395 349 L 396 348 L 396 345 L 397 344 L 397 342 L 398 341 L 398 339 L 399 338 L 399 337 L 400 336 L 400 335 L 401 334 L 401 333 L 404 330 L 404 329 L 409 324 L 410 324 L 413 321 L 414 321 L 415 320 L 416 320 L 417 319 L 419 319 L 420 318 L 423 318 Z" fill="#f3f6ee" fill-rule="evenodd"/>
<path d="M 655 293 L 627 293 L 625 300 L 626 306 L 624 307 L 614 298 L 600 292 L 590 290 L 581 290 L 580 289 L 579 290 L 568 290 L 554 294 L 545 299 L 531 313 L 521 334 L 518 352 L 518 363 L 523 386 L 532 402 L 541 411 L 552 418 L 571 424 L 591 424 L 602 421 L 613 415 L 622 405 L 624 406 L 623 407 L 624 418 L 622 429 L 618 437 L 613 443 L 604 449 L 594 452 L 574 452 L 558 448 L 539 438 L 527 461 L 529 464 L 542 471 L 559 477 L 576 480 L 591 480 L 609 477 L 627 470 L 633 466 L 647 451 L 654 436 L 657 421 L 657 295 Z" fill="#f3f6ee" fill-rule="evenodd"/>
<path d="M 577 317 L 580 317 L 581 316 L 594 316 L 595 317 L 599 317 L 600 318 L 602 318 L 603 319 L 604 319 L 605 320 L 606 320 L 607 321 L 608 321 L 610 323 L 611 323 L 616 328 L 616 329 L 619 332 L 619 333 L 620 334 L 620 335 L 621 336 L 621 337 L 622 338 L 622 339 L 623 340 L 623 342 L 624 343 L 624 347 L 625 348 L 625 366 L 624 367 L 624 371 L 623 372 L 623 374 L 622 375 L 622 376 L 621 377 L 621 378 L 620 379 L 620 380 L 619 381 L 619 382 L 615 386 L 615 387 L 614 388 L 613 388 L 610 391 L 609 391 L 607 393 L 605 393 L 604 394 L 603 394 L 602 395 L 600 395 L 599 396 L 595 396 L 594 397 L 582 397 L 581 396 L 578 396 L 577 395 L 576 395 L 575 394 L 573 394 L 572 393 L 571 393 L 569 391 L 568 391 L 559 382 L 559 381 L 558 380 L 558 379 L 556 377 L 556 375 L 555 374 L 555 373 L 554 372 L 554 369 L 553 368 L 553 365 L 552 364 L 552 348 L 553 347 L 553 343 L 554 342 L 554 340 L 555 339 L 555 337 L 556 336 L 556 335 L 558 333 L 558 332 L 559 331 L 559 330 L 568 321 L 569 321 L 570 320 L 571 320 L 572 319 L 573 319 L 574 318 L 576 318 Z" fill="#f3f6ee" fill-rule="evenodd"/>
<path d="M 306 243 L 306 427 L 307 428 L 336 428 L 337 427 L 338 427 L 338 244 L 336 242 L 335 242 L 334 243 L 333 242 L 332 243 L 329 243 L 328 242 L 327 243 L 321 243 L 320 242 L 319 243 Z" fill="#f3f6ee" fill-rule="evenodd"/>
<path d="M 108 165 L 101 171 L 97 177 L 11 402 L 6 416 L 5 426 L 8 429 L 88 429 L 104 426 L 122 420 L 149 406 L 152 408 L 156 419 L 158 421 L 163 421 L 167 415 L 181 373 L 183 370 L 186 369 L 190 374 L 205 416 L 212 427 L 217 429 L 265 428 L 268 425 L 268 420 L 264 407 L 187 201 L 176 175 L 169 167 L 157 162 L 117 162 Z" fill="#f3f6ee" fill-rule="evenodd"/>
<path d="M 139 242 L 142 246 L 142 248 L 145 253 L 145 255 L 146 256 L 146 258 L 148 261 L 148 263 L 149 264 L 150 269 L 152 272 L 153 277 L 155 280 L 155 282 L 156 283 L 156 285 L 157 286 L 158 291 L 160 294 L 161 299 L 163 302 L 164 307 L 166 310 L 166 312 L 168 315 L 168 317 L 170 320 L 170 322 L 172 325 L 172 327 L 173 328 L 173 330 L 175 333 L 175 335 L 176 336 L 176 337 L 174 339 L 120 339 L 118 341 L 118 347 L 120 349 L 120 350 L 129 359 L 129 360 L 132 363 L 132 364 L 133 365 L 133 367 L 134 368 L 134 370 L 133 371 L 133 372 L 129 375 L 128 375 L 126 377 L 125 377 L 114 383 L 112 383 L 107 386 L 105 386 L 104 387 L 102 387 L 101 388 L 99 388 L 98 389 L 95 389 L 94 390 L 84 390 L 81 388 L 81 382 L 82 381 L 82 379 L 83 378 L 83 376 L 84 375 L 85 370 L 87 367 L 88 362 L 90 359 L 91 354 L 93 351 L 94 346 L 96 343 L 96 341 L 97 340 L 98 335 L 100 332 L 100 330 L 101 329 L 102 324 L 104 321 L 105 316 L 107 313 L 107 311 L 108 310 L 109 305 L 111 302 L 111 300 L 113 297 L 113 295 L 114 294 L 115 289 L 117 286 L 118 281 L 120 278 L 120 276 L 121 275 L 122 270 L 124 267 L 124 265 L 125 264 L 126 259 L 128 256 L 128 254 L 130 251 L 131 246 L 133 244 L 133 243 L 134 242 Z" fill="#f3f6ee" fill-rule="evenodd"/>
</svg>

